<?xml version="1.0" standalone="no"?><!DOCTYPE svg PUBLIC "-//W3C//DTD SVG 1.1//EN" "http://www.w3.org/Graphics/SVG/1.1/DTD/svg11.dtd"><svg height="1024" node-id="1" sillyvg="true" template-height="1024" template-width="1024" version="1.1" viewBox="0 0 1024 1024" width="1024" xmlns="http://www.w3.org/2000/svg" xmlns:xlink="http://www.w3.org/1999/xlink"><defs node-id="142"><linearGradient gradientUnits="objectBoundingBox" id="SVGID_1_" node-id="13" spreadMethod="pad" x1="-2639.6345" x2="-2639.0483" y1="-206.3166" y2="-206.3166"><stop offset="0" stop-color="#2b5acc"></stop><stop offset="1" stop-color="#152873"></stop></linearGradient><linearGradient gradientUnits="objectBoundingBox" id="SVGID_2_" node-id="18" spreadMethod="pad" x1="-2626.4543" x2="-2625.8682" y1="-207.9128" y2="-207.9128"><stop offset="0" stop-color="#ffaa21"></stop><stop offset="1" stop-color="#ff511d"></stop></linearGradient><linearGradient gradientUnits="objectBoundingBox" id="SVGID_3_" node-id="22" spreadMethod="pad" x1="-2616.748" x2="-2616.1804" y1="-226.6494" y2="-226.6494"><stop offset="0" stop-color="#ffaa21"></stop><stop offset="1" stop-color="#ff511d"></stop></linearGradient><linearGradient gradientUnits="objectBoundingBox" id="SVGID_4_" node-id="26" spreadMethod="pad" x1="-2639.121" x2="-2638.5535" y1="-227.8213" y2="-227.8213"><stop offset="0" stop-color="#ffffff"></stop><stop offset="1" stop-color="#f0e7df"></stop></linearGradient><linearGradient gradientUnits="objectBoundingBox" id="SVGID_5_" node-id="30" spreadMethod="pad" x1="-2628.8618" x2="-2628.276" y1="-199.1309" y2="-199.1309"><stop offset="0" stop-color="#ffaa21"></stop><stop offset="1" stop-color="#ff511d"></stop></linearGradient><linearGradient gradientUnits="objectBoundingBox" id="SVGID_6_" node-id="36" spreadMethod="pad" x1="-2636.1155" x2="-2635.5288" y1="-212.9696" y2="-212.9696"><stop offset="0" stop-color="#ffbc56"></stop><stop offset="1" stop-color="#ff5133"></stop></linearGradient><linearGradient gradientUnits="objectBoundingBox" id="SVGID_7_" node-id="40" spreadMethod="pad" x1="-2636.8904" x2="-2636.3042" y1="-203.5986" y2="-203.5986"><stop offset="0" stop-color="#ffffff"></stop><stop offset="1" stop-color="#f0e7df"></stop></linearGradient><linearGradient gradientUnits="objectBoundingBox" id="Arm-Right_1_" node-id="44" spreadMethod="pad" x1="-2639.8208" x2="-2639.253" y1="-201.3472" y2="-201.3472"><stop offset="0" stop-color="#ffbc56"></stop><stop offset="1" stop-color="#ff5133"></stop></linearGradient><linearGradient gradientUnits="objectBoundingBox" id="SVGID_8_" node-id="49" spreadMethod="pad" x1="-2639.9287" x2="-2639.361" y1="-201.6914" y2="-201.5778"><stop offset="0" stop-color="#ffbc56"></stop><stop offset="1" stop-color="#ff5133"></stop></linearGradient><linearGradient gradientUnits="objectBoundingBox" id="SVGID_9_" node-id="53" spreadMethod="pad" x1="-2635.7773" x2="-2635.191" y1="-220.4224" y2="-220.4224"><stop offset="0" stop-color="#ffffff"></stop><stop offset="1" stop-color="#f0e7df"></stop></linearGradient><linearGradient gradientUnits="objectBoundingBox" id="SVGID_10_" node-id="58" spreadMethod="pad" x1="-2639.5063" x2="-2638.92" y1="-185.9499" y2="-185.9499"><stop offset="0" stop-color="#f7e9dd"></stop><stop offset="1" stop-color="#e6c2a2"></stop></linearGradient><linearGradient gradientUnits="objectBoundingBox" id="SVGID_11_" node-id="62" spreadMethod="pad" x1="-2638.9622" x2="-2638.3762" y1="-185.6418" y2="-185.4148"><stop offset="0" stop-color="#f7e9dd"></stop><stop offset="1" stop-color="#e6c2a2"></stop></linearGradient><linearGradient gradientUnits="objectBoundingBox" id="SVGID_12_" node-id="66" spreadMethod="pad" x1="-2639.5063" x2="-2638.92" y1="-185.5773" y2="-185.5773"><stop offset="0" stop-color="#e6cbb0"></stop><stop offset="1" stop-color="#d3a77c"></stop></linearGradient><linearGradient gradientUnits="objectBoundingBox" id="SVGID_13_" node-id="70" spreadMethod="pad" x1="-2638.963" x2="-2638.3767" y1="-205.216" y2="-204.989"><stop offset="0" stop-color="#e6cbb0"></stop><stop offset="1" stop-color="#d3a77c"></stop></linearGradient><linearGradient gradientUnits="objectBoundingBox" id="SVGID_14_" node-id="74" spreadMethod="pad" x1="-2639.0059" x2="-2638.4192" y1="-265.0068" y2="-265.0068"><stop offset="0" stop-color="#ffffff"></stop><stop offset="1" stop-color="#f0e7df"></stop></linearGradient><linearGradient gradientUnits="objectBoundingBox" id="SVGID_15_" node-id="78" spreadMethod="pad" x1="-2643.236" x2="-2642.6497" y1="-203.1438" y2="-203.1438"><stop offset="0" stop-color="#b5977a"></stop><stop offset="1" stop-color="#b5a393"></stop></linearGradient><linearGradient gradientUnits="objectBoundingBox" id="SVGID_16_" node-id="82" spreadMethod="pad" x1="-2642.8137" x2="-2642.227" y1="-203.1438" y2="-203.1438"><stop offset="0" stop-color="#b5977a"></stop><stop offset="1" stop-color="#b5a393"></stop></linearGradient><linearGradient gradientUnits="objectBoundingBox" id="SVGID_17_" node-id="87" spreadMethod="pad" x1="-2638.7202" x2="-2638.1526" y1="-188.3571" y2="-188.3571"><stop offset="0" stop-color="#2b5acc"></stop><stop offset="1" stop-color="#152873"></stop></linearGradient><linearGradient gradientUnits="objectBoundingBox" id="SVGID_18_" node-id="91" spreadMethod="pad" x1="-2638.6392" x2="-2638.072" y1="-202.0822" y2="-202.0822"><stop offset="0" stop-color="#ffddd3"></stop><stop offset="0.54" stop-color="#ffbbaa"></stop><stop offset="1" stop-color="#ffae9a"></stop></linearGradient><linearGradient gradientUnits="objectBoundingBox" id="SVGID_19_" node-id="96" spreadMethod="pad" x1="-2611.0076" x2="-2610.44" y1="-193.4438" y2="-193.4438"><stop offset="0" stop-color="#f58b71"></stop><stop offset="1" stop-color="#fca289"></stop></linearGradient><linearGradient gradientUnits="objectBoundingBox" id="SVGID_20_" node-id="101" spreadMethod="pad" x1="-2639.0588" x2="-2638.473" y1="-210.3086" y2="-210.3086"><stop offset="0" stop-color="#ffffff"></stop><stop offset="1" stop-color="#f0e7df"></stop></linearGradient><linearGradient gradientUnits="objectBoundingBox" id="SVGID_21_" node-id="105" spreadMethod="pad" x1="-2638.49" x2="-2637.9036" y1="-211.307" y2="-211.307"><stop offset="0" stop-color="#ffddd3"></stop><stop offset="0.54" stop-color="#ffbbaa"></stop><stop offset="1" stop-color="#ffae9a"></stop></linearGradient><linearGradient gradientUnits="objectBoundingBox" id="SVGID_22_" node-id="111" spreadMethod="pad" x1="-2640.1174" x2="-2639.5503" y1="-185.4296" y2="-185.5432"><stop offset="0" stop-color="#2b5acc"></stop><stop offset="1" stop-color="#152873"></stop></linearGradient><linearGradient gradientUnits="objectBoundingBox" id="SVGID_23_" node-id="115" spreadMethod="pad" x1="-2642.122" x2="-2641.5354" y1="-371.2014" y2="-371.0502"><stop offset="0" stop-color="#ffffff"></stop><stop offset="1" stop-color="#f0e7df"></stop></linearGradient><linearGradient gradientUnits="objectBoundingBox" id="SVGID_24_" node-id="119" spreadMethod="pad" x1="-2645.5115" x2="-2644.9255" y1="-242.8046" y2="-242.7667"><stop offset="0" stop-color="#ffffff"></stop><stop offset="1" stop-color="#f0e7df"></stop></linearGradient><linearGradient gradientUnits="objectBoundingBox" id="Hand-Left_1_" node-id="123" spreadMethod="pad" x1="-2637.0889" x2="-2636.5022" y1="-208.9863" y2="-208.9673"><stop offset="0" stop-color="#ffddd3"></stop><stop offset="0.54" stop-color="#ffbbaa"></stop><stop offset="1" stop-color="#ffae9a"></stop></linearGradient><linearGradient gradientUnits="objectBoundingBox" id="SVGID_25_" node-id="129" spreadMethod="pad" x1="-2639.2869" x2="-2638.7004" y1="-201.1994" y2="-201.2372"><stop offset="0" stop-color="#ffbc56"></stop><stop offset="1" stop-color="#ff5133"></stop></linearGradient><linearGradient gradientUnits="objectBoundingBox" id="SVGID_26_" node-id="133" spreadMethod="pad" x1="-2639.5" x2="-2638.9321" y1="-200.755" y2="-200.755"><stop offset="0" stop-color="#ffbc56"></stop><stop offset="1" stop-color="#ff5133"></stop></linearGradient><linearGradient gradientUnits="objectBoundingBox" id="SVGID_27_" node-id="137" spreadMethod="pad" x1="-2637.2825" x2="-2636.696" y1="-134.93" y2="-134.6841"><stop offset="0" stop-color="#e1f2ff"></stop><stop offset="1" stop-color="#95d2ff"></stop></linearGradient></defs><g node-id="413"><g node-id="414"><g node-id="415"><path d="M 100.80 879.20 L 926.70 879.20 C 926.70 879.20 1025.60 772.20 997.60 612.70 C 969.60 453.20 778.20 175.40 531.30 175.40 C 284.40 175.40 401.40 450.20 300.10 514.40 C 178.40 591.40 21.30 628.80 21.30 747.70 C 21.30 848.90 100.80 879.20 100.80 879.20 Z M 271.30 257.60 C 298.50 281.60 292.10 356.60 238.30 418.60 C 197.00 466.20 129.80 519.10 80.90 487.20 C 32.00 455.30 65.50 368.50 121.80 311.60 C 182.00 250.70 249.90 238.70 271.30 257.60 Z" fill="#cde6ff" fill-rule="evenodd" group-id="1,2,3" node-id="329" stroke="none" target-height="703.80005" target-width="1004.3" target-x="21.3" target-y="175.4"></path><path d="M 865.60 355.70 C 937.30 440.70 984.80 539.20 997.70 612.70 C 1008.30 672.80 1001.80 734.80 978.80 791.40 L 27.00 791.40 C 23.20 777.10 21.30 762.40 21.30 747.70 C 21.30 628.80 178.30 591.40 300.00 514.30 C 343.00 487.20 346.70 421.80 355.50 355.70 L 865.60 355.70 Z M 276.50 355.70 C 267.60 378.70 254.70 400.00 238.40 418.50 C 197.10 466.10 129.90 519.00 81.00 487.10 C 43.60 462.70 54.40 406.40 86.70 355.70 L 276.50 355.70 Z" fill="#b1d9ff" fill-rule="evenodd" group-id="1,2,3" node-id="331" stroke="none" target-height="435.7" target-width="986.99994" target-x="21.3" target-y="355.7"></path><path d="M 642.20 520.90 C 643.20 513.30 649.60 507.70 657.20 507.70 L 882.10 507.70 C 890.50 507.70 897.20 514.50 897.20 522.80 L 897.20 861.80 C 897.20 870.40 890.20 877.40 881.50 877.50 L 599.80 877.50 L 642.20 520.90 Z" fill="#9fcfff" fill-rule="evenodd" group-id="1,2,3" node-id="333" stroke="none" target-height="369.8" target-width="297.4001" target-x="599.8" target-y="507.7"></path><path d="M 172.20 791.40 L 27.00 791.40 C 23.20 777.10 21.30 762.40 21.30 747.70 C 21.30 704.60 41.90 672.30 74.00 644.80 L 172.20 644.80 L 172.20 791.40 Z" fill="#9fcfff" fill-rule="evenodd" group-id="1,2,3" node-id="335" stroke="none" target-height="146.60004" target-width="150.9" target-x="21.3" target-y="644.8"></path><path d="M 172.20 618.70 L 109.80 618.70 C 128.90 606.40 150.10 595.00 172.20 583.50 L 172.20 618.70 Z M 60.10 415.70 L 172.10 415.70 L 172.10 477.10 C 141.10 496.40 108.20 505.00 80.90 487.20 C 58.20 472.30 53.30 445.70 60.10 415.70 L 60.10 415.70 Z" fill="#9fcfff" fill-rule="evenodd" group-id="1,2,3" node-id="337" stroke="none" target-height="203" target-width="118.899994" target-x="53.3" target-y="415.7"></path><path d="M 978.80 791.40 C 956.50 846.90 926.70 879.20 926.70 879.20 L 100.80 879.20 C 100.80 879.20 45.00 857.90 27.00 791.40 L 978.80 791.40 Z" fill="url(#SVGID_1_)" fill-rule="evenodd" group-id="1,2,3" node-id="339" stroke="none" target-height="87.79999" target-width="951.8" target-x="27" target-y="791.4"></path></g><g node-id="416"><path d="M 81.80 681.90 C 109.30 678.70 134.20 698.40 137.40 726.00 C 137.80 729.80 137.80 733.70 137.40 737.60 C 109.90 740.80 85.00 721.10 81.80 693.50 C 81.30 689.60 81.30 685.70 81.80 681.90 Z" fill="url(#SVGID_2_)" fill-rule="evenodd" group-id="1,2,4" node-id="343" stroke="none" target-height="62.100037" target-width="56.5" target-x="81.3" target-y="678.7"></path><path d="M 190.00 681.90 C 162.50 678.70 137.60 698.40 134.40 726.00 C 134.00 729.80 134.00 733.70 134.40 737.60 C 161.90 740.80 186.80 721.00 190.00 693.50 C 190.50 689.60 190.50 685.70 190.00 681.90 Z" fill="url(#SVGID_3_)" fill-rule="evenodd" group-id="1,2,4" node-id="345" stroke="none" target-height="62.100037" target-width="56.5" target-x="134" target-y="678.7"></path><path d="M 194.90 748.20 C 194.90 741.40 189.40 735.80 182.50 735.80 L 182.50 735.80 L 89.20 735.80 C 82.40 735.80 76.80 741.30 76.80 748.10 C 76.80 748.10 76.80 748.20 76.80 748.20 L 76.80 807.30 L 194.90 807.30 L 194.90 748.20 Z" fill="url(#SVGID_4_)" fill-rule="evenodd" group-id="1,2,4" node-id="347" stroke="none" target-height="71.50006" target-width="118.09999" target-x="76.8" target-y="735.7999"></path><path d="M 194.90 807.30 L 76.90 807.30 L 76.90 820.20 C 76.90 833.00 87.20 843.40 100.00 843.50 C 100.00 843.50 100.00 843.50 100.10 843.50 L 171.80 843.50 C 184.60 843.50 195.00 833.10 195.00 820.30 C 195.00 820.30 195.00 820.20 195.00 820.20 L 195.00 807.30 L 194.90 807.30 Z" fill="url(#SVGID_5_)" fill-rule="evenodd" group-id="1,2,4" node-id="349" stroke="none" target-height="36.200012" target-width="118.1" target-x="76.9" target-y="807.3"></path></g><g node-id="417"><g node-id="419"><path d="M 290.70 500.00 L 420.00 420.10 L 478.90 522.10 L 347.30 598.10 L 290.70 500.00 Z" fill="url(#SVGID_6_)" fill-rule="evenodd" group-id="1,2,5,7" node-id="354" stroke="none" target-height="177.99997" target-width="188.19995" target-x="290.7" target-y="420.1"></path><path d="M 228.90 541.20 L 303.20 449.30 L 337.30 493.80 L 327.50 563.50 L 347.50 598.20 L 300.10 625.60 C 273.70 641.50 239.40 632.90 223.50 606.50 C 211.80 587.00 213.10 562.40 226.70 544.20 L 226.70 544.20 C 227.40 543.00 228.10 542.10 228.90 541.20 Z" fill="url(#SVGID_7_)" fill-rule="evenodd" group-id="1,2,5,7" node-id="356" stroke="none" target-height="192.20001" target-width="135.7" target-x="211.8" target-y="449.3"></path></g><path d="M 734.10 642.50 L 663.10 508.20 L 728.30 424.70 L 728.30 424.70 C 747.40 430.90 763.10 444.50 771.90 462.50 L 835.80 592.70 L 734.10 642.50 L 734.10 642.50 Z" fill="url(#Arm-Right_1_)" fill-rule="evenodd" group-id="1,2,5" id="Arm-Right" node-id="47" stroke="none" target-height="217.79999" target-width="172.70007" target-x="663.1" target-y="424.7"></path><g node-id="420"><path d="M 414.20 459.10 C 414.00 434.90 430.90 413.90 454.60 408.80 L 537.60 391.20 L 625.40 391.20 L 728.30 424.60 L 728.30 791.50 L 416.70 791.50 C 416.70 791.40 414.90 556.60 414.20 459.10 L 414.20 459.10 Z" fill="url(#SVGID_8_)" fill-rule="evenodd" group-id="1,2,5,8" node-id="361" stroke="none" target-height="400.29996" target-width="314.3" target-x="414" target-y="391.20004"></path><path d="M 519.60 394.90 L 537.60 391.10 L 625.40 391.10 L 652.20 399.80 C 614.60 447.90 513.50 457.50 518.80 404.20 L 519.60 394.90 L 519.60 394.90 Z" fill="url(#SVGID_9_)" fill-rule="evenodd" group-id="1,2,5,8" node-id="363" stroke="none" target-height="66.400024" target-width="138.70001" target-x="513.5" target-y="391.1"></path></g><g node-id="421"><path d="M 258.70 641.50 L 451.40 641.50 L 451.40 843.40 L 258.70 843.40 Z" fill="url(#SVGID_10_)" fill-rule="nonzero" group-id="1,2,5,9" node-id="367" stroke="none" target-height="201.89996" target-width="192.69998" target-x="258.7" target-y="641.5"></path><path d="M 451.40 641.50 L 258.70 641.50 L 204.60 742.50 L 397.30 742.50 L 451.40 641.50 L 451.40 641.50 Z" fill="url(#SVGID_11_)" fill-rule="evenodd" group-id="1,2,5,9" node-id="369" stroke="none" target-height="101" target-width="246.79999" target-x="204.6" target-y="641.5"></path><path d="M 451.40 641.50 L 626.60 641.50 L 626.60 843.40 L 451.40 843.40 Z" fill="url(#SVGID_12_)" fill-rule="nonzero" group-id="1,2,5,9" node-id="371" stroke="none" target-height="201.89996" target-width="175.19998" target-x="451.4" target-y="641.5"></path><path d="M 451.40 641.50 L 644.10 641.50 L 698.20 742.50 L 505.50 742.50 L 451.40 641.50 Z" fill="url(#SVGID_13_)" fill-rule="evenodd" group-id="1,2,5,9" node-id="373" stroke="none" target-height="101" target-width="246.80002" target-x="451.4" target-y="641.5"></path><path d="M 430.20 777.50 C 430.20 774.80 428.00 772.50 425.20 772.50 L 385.50 772.50 C 382.80 772.50 380.50 774.70 380.50 777.50 C 380.50 777.50 380.50 777.50 380.50 777.50 L 380.50 817.20 C 380.50 819.90 382.70 822.20 385.40 822.20 C 385.40 822.20 385.40 822.20 385.40 822.20 L 425.10 822.20 C 427.80 822.20 430.10 820.00 430.10 817.20 L 430.10 777.50 Z" fill="url(#SVGID_14_)" fill-rule="evenodd" group-id="1,2,5,9" node-id="375" stroke="none" target-height="49.700012" target-width="49.700012" target-x="380.5" target-y="772.5"></path><path d="M 421.00 788.10 C 421.00 787.50 420.50 787.10 420.00 787.10 L 420.00 787.10 L 390.70 787.10 C 390.10 787.10 389.70 787.60 389.70 788.10 L 389.70 788.10 L 389.70 792.90 C 389.70 793.50 390.20 793.90 390.70 793.90 L 420.00 793.90 C 420.60 793.90 421.00 793.50 421.00 792.90 L 421.00 788.10 Z" fill="url(#SVGID_15_)" fill-rule="evenodd" group-id="1,2,5,9" node-id="377" stroke="none" target-height="6.799988" target-width="31.300018" target-x="389.69998" target-y="787.1"></path><path d="M 421.00 801.80 C 421.00 801.20 420.50 800.80 420.00 800.80 L 390.70 800.80 C 390.10 800.80 389.70 801.20 389.70 801.80 L 389.70 806.60 C 389.70 807.20 390.20 807.60 390.70 807.60 L 390.70 807.60 L 420.00 807.60 C 420.60 807.60 421.00 807.10 421.00 806.60 L 421.00 806.60 L 421.00 801.80 Z" fill="url(#SVGID_16_)" fill-rule="evenodd" group-id="1,2,5,9" node-id="379" stroke="none" target-height="6.800049" target-width="31.300018" target-x="389.69998" target-y="800.7999"></path></g><g node-id="422"><path d="M 504.10 280.10 C 504.10 280.10 460.70 245.00 462.30 226.60 C 462.70 221.40 478.10 216.90 478.60 213.00 C 479.20 208.10 453.10 193.70 459.40 187.70 C 490.80 158.10 603.30 105.90 643.70 192.10 C 677.20 200.70 670.80 285.20 637.90 299.90 L 504.10 280.10 L 504.10 280.10 Z" fill="url(#SVGID_17_)" fill-rule="evenodd" group-id="1,2,5,10" node-id="383" stroke="none" target-height="194" target-width="224.1" target-x="453.1" target-y="105.9"></path><path d="M 633.00 324.50 L 626.70 397.60 C 599.00 425.30 533.90 430.20 537.00 399.50 L 539.30 373.80 L 539.30 373.80 C 514.90 374.70 494.50 355.60 493.60 331.30 C 493.60 330.00 493.60 328.60 493.60 327.30 C 495.70 289.90 498.20 244.40 498.20 244.40 C 516.60 245.60 545.10 227.40 554.30 227.80 C 562.50 228.20 544.10 248.90 550.90 247.90 C 583.30 243.30 599.20 226.60 599.20 226.60 C 604.50 251.80 610.70 268.80 616.50 280.20 C 627.50 272.20 642.90 274.60 650.90 285.60 C 658.90 296.60 656.50 312.00 645.50 320.00 C 641.80 322.50 637.50 324.10 633.00 324.50 Z" fill="url(#SVGID_18_)" fill-rule="evenodd" group-id="1,2,5,10" node-id="385" stroke="none" target-height="203.60002" target-width="165.30005" target-x="493.59998" target-y="226.59999"></path><path d="M 539.40 373.80 C 539.40 373.80 567.30 371.00 583.80 362.40 C 583.80 362.40 576.20 395.50 537.10 399.40 L 539.40 373.80 Z" fill="url(#SVGID_19_)" fill-rule="evenodd" group-id="1,2,5,10" node-id="387" stroke="none" target-height="36.99997" target-width="46.700012" target-x="537.1" target-y="362.4"></path></g><g node-id="423"><path d="M 859.90 641.70 C 874.00 669.10 863.20 702.80 835.80 716.90 C 821.90 724.00 805.70 725.00 791.10 719.70 L 791.10 719.70 L 656.50 671.80 L 648.70 603.70 L 795.70 612.40 L 835.80 592.70 L 859.90 641.90 L 859.90 641.70 Z" fill="url(#SVGID_20_)" fill-rule="evenodd" group-id="1,2,5,11" node-id="391" stroke="none" target-height="132.29999" target-width="225.29999" target-x="648.7" target-y="592.7"></path><path d="M 648.60 603.60 L 595.00 603.60 C 589.30 603.60 583.70 604.90 578.60 607.40 L 533.60 629.60 C 528.30 632.20 526.10 638.60 528.70 643.90 C 529.40 645.40 530.50 646.60 531.70 647.60 L 564.40 672.90 C 575.20 681.30 589.10 684.60 602.60 682.10 L 656.50 671.90 C 671.60 641.70 669.70 618.70 648.60 603.60 Z" fill="url(#SVGID_21_)" fill-rule="evenodd" group-id="1,2,5,11" node-id="393" stroke="none" target-height="81" target-width="145.5" target-x="526.1" target-y="603.6"></path></g><g node-id="424"><path d="M 468.10 359.10 C 477.20 361.30 483.40 369.70 483.00 379.00 C 478.00 436.70 472.90 494.40 467.60 552.00 C 466.80 560.30 459.40 566.40 451.10 565.70 C 450.60 565.70 450.20 565.60 449.70 565.50 C 405.70 557.00 361.70 548.30 317.80 539.40 C 308.70 537.20 302.50 528.80 302.90 519.50 C 307.90 461.80 313.00 404.10 318.30 346.50 C 319.10 338.20 326.50 332.10 334.80 332.80 C 335.30 332.80 335.70 332.90 336.20 333.00 C 380.10 341.60 424.10 350.30 468.10 359.10 L 468.10 359.10 Z" fill="url(#SVGID_22_)" fill-rule="evenodd" group-id="1,2,5,12" node-id="397" stroke="none" target-height="234.30002" target-width="180.9" target-x="302.5" target-y="332.1"></path><path d="M 406.30 409.60 C 406.20 410.60 405.70 411.60 404.90 412.20 C 404.10 412.80 403.00 413.10 402.00 412.90 L 389.70 410.50 C 387.90 410.10 386.60 408.40 386.80 406.60 C 387.10 403.20 387.60 397.80 387.90 394.20 C 388.00 393.20 388.50 392.20 389.40 391.60 C 390.20 391.00 391.30 390.70 392.30 390.90 L 404.60 393.30 C 406.40 393.70 407.70 395.40 407.50 397.20 C 407.20 400.60 406.70 405.90 406.30 409.60 L 406.30 409.60 Z" fill="url(#SVGID_23_)" fill-rule="evenodd" group-id="1,2,5,12" node-id="399" stroke="none" target-height="22.399963" target-width="21.100037" target-x="386.6" target-y="390.70004"></path><path d="M 420.50 559.80 C 396.00 555.00 371.50 550.10 347.00 545.30 C 310.20 538.00 347.50 539.40 348.00 534.40 C 348.30 531.00 351.30 528.50 354.70 528.80 C 354.90 528.80 355.20 528.90 355.40 528.90 L 415.40 540.70 C 419.30 541.50 422.00 545.00 421.60 549.00 C 421.00 554.00 420.50 559.80 420.50 559.80 Z" fill="url(#SVGID_24_)" fill-rule="evenodd" group-id="1,2,5,12" node-id="401" stroke="none" target-height="31.299988" target-width="111.79999" target-x="310.2" target-y="528.5"></path></g><path d="M 300.20 420.80 C 291.50 425.70 286.20 434.90 286.20 444.90 L 286.20 476.10 C 286.20 485.40 292.50 493.40 301.50 495.60 L 344.30 506.00 C 352.20 507.90 360.10 503.10 362.10 495.20 C 362.40 494.00 362.50 492.90 362.50 491.70 L 362.50 448.60 C 362.50 443.30 359.50 438.40 354.80 435.90 L 320.00 417.80 C 315.20 415.30 309.50 415.40 304.90 418.10 L 300.20 420.80 L 300.20 420.80 Z" fill="url(#Hand-Left_1_)" fill-rule="evenodd" group-id="1,2,5" id="Hand-Left" node-id="127" stroke="none" target-height="92.600006" target-width="76.29999" target-x="286.2" target-y="415.3"></path></g><g node-id="418"><path d="M 660.50 815.60 C 660.50 813.70 662.10 812.10 664.00 812.10 C 664.00 812.10 664.00 812.10 664.00 812.10 L 942.50 812.10 L 942.50 843.40 L 688.30 843.40 C 673.00 843.40 660.50 831.00 660.50 815.60 L 660.50 815.60 Z" fill="url(#SVGID_25_)" fill-rule="evenodd" group-id="1,2,6" node-id="407" stroke="none" target-height="31.299988" target-width="282" target-x="660.5" target-y="812.1"></path><path d="M 998.20 616.00 C 1015.20 719.00 979.50 799.80 952.60 843.40 L 791.40 843.40 C 778.80 843.40 771.30 833.20 774.60 820.70 L 822.50 638.80 C 825.80 626.30 838.70 616.10 851.20 616.10 L 998.20 616.00 Z" fill="url(#SVGID_26_)" fill-rule="evenodd" group-id="1,2,6" node-id="409" stroke="none" target-height="227.39996" target-width="243.90002" target-x="771.3" target-y="616"></path><path d="M 938.20 718.10 C 938.70 716.40 940.20 715.30 941.90 715.20 L 976.00 715.20 C 977.20 715.10 978.20 716.10 978.30 717.20 C 978.30 717.50 978.30 717.80 978.20 718.10 L 972.10 741.30 C 971.60 742.90 970.20 744.10 968.40 744.20 L 934.30 744.20 C 933.10 744.30 932.10 743.30 932.00 742.20 C 932.00 741.90 932.00 741.60 932.10 741.30 L 938.20 718.10 Z" fill="url(#SVGID_27_)" fill-rule="evenodd" group-id="1,2,6" node-id="411" stroke="none" target-height="29.200012" target-width="46.30005" target-x="932" target-y="715.1"></path></g></g></g></svg>